<svg id="c4-diagram-14" width="100%" xmlns="http://www.w3.org/2000/svg" xmlns:xlink="http://www.w3.org/1999/xlink" class="flowchart" style="max-width: 795.933px; background-color: transparent;" viewBox="0 0 795.93310546875 822" role="graphics-document document" aria-roledescription="flowchart-v2"><style>#c4-diagram-14{font-family:"trebuchet ms",verdana,arial,sans-serif;font-size:16px;fill:#333;}@keyframes edge-animation-frame{from{stroke-dashoffset:0;}}@keyframes dash{to{stroke-dashoffset:0;}}#c4-diagram-14 .edge-animation-slow{stroke-dasharray:9,5!important;stroke-dashoffset:900;animation:dash 50s linear infinite;stroke-linecap:round;}#c4-diagram-14 .edge-animation-fast{stroke-dasharray:9,5!important;stroke-dashoffset:900;animation:dash 20s linear infinite;stroke-linecap:round;}#c4-diagram-14 .error-icon{fill:#552222;}#c4-diagram-14 .error-text{fill:#552222;stroke:#552222;}#c4-diagram-14 .edge-thickness-normal{stroke-width:1px;}#c4-diagram-14 .edge-thickness-thick{stroke-width:3.5px;}#c4-diagram-14 .edge-pattern-solid{stroke-dasharray:0;}#c4-diagram-14 .edge-thickness-invisible{stroke-width:0;fill:none;}#c4-diagram-14 .edge-pattern-dashed{stroke-dasharray:3;}#c4-diagram-14 .edge-pattern-dotted{stroke-dasharray:2;}#c4-diagram-14 .marker{fill:#333333;stroke:#333333;}#c4-diagram-14 .marker.cross{stroke:#333333;}#c4-diagram-14 svg{font-family:"trebuchet ms",verdana,arial,sans-serif;font-size:16px;}#c4-diagram-14 p{margin:0;}#c4-diagram-14 .label{font-family:"trebuchet ms",verdana,arial,sans-serif;color:#333;}#c4-diagram-14 .cluster-label text{fill:#333;}#c4-diagram-14 .cluster-label span{color:#333;}#c4-diagram-14 .cluster-label span p{background-color:transparent;}#c4-diagram-14 .label text,#c4-diagram-14 span{fill:#333;color:#333;}#c4-diagram-14 .node rect,#c4-diagram-14 .node circle,#c4-diagram-14 .node ellipse,#c4-diagram-14 .node polygon,#c4-diagram-14 .node path{fill:#ECECFF;stroke:#9370DB;stroke-width:1px;}#c4-diagram-14 .rough-node .label text,#c4-diagram-14 .node .label text,#c4-diagram-14 .image-shape .label,#c4-diagram-14 .icon-shape .label{text-anchor:middle;}#c4-diagram-14 .node .katex path{fill:#000;stroke:#000;stroke-width:1px;}#c4-diagram-14 .rough-node .label,#c4-diagram-14 .node .label,#c4-diagram-14 .image-shape .label,#c4-diagram-14 .icon-shape .label{text-align:center;}#c4-diagram-14 .node.clickable{cursor:pointer;}#c4-diagram-14 .root .anchor path{fill:#333333!important;stroke-width:0;stroke:#333333;}#c4-diagram-14 .arrowheadPath{fill:#333333;}#c4-diagram-14 .edgePaths .path{stroke:#333333;stroke-width:1px;}#c4-diagram-14 .flowchart-link{stroke:#333333;fill:none;}#c4-diagram-14 .edgeLabel{background-color:rgba(232,232,232, 0.8);text-align:center;}#c4-diagram-14 .edgeLabel p{background-color:rgba(232,232,232, 0.8);}#c4-diagram-14 .edgeLabel rect{opacity:0.5;background-color:rgba(232,232,232, 0.8);fill:rgba(232,232,232, 0.8);}#c4-diagram-14 .labelBkg{background-color:rgba(232, 232, 232, 0.5);}#c4-diagram-14 .cluster rect{fill:#ffffde;stroke:#aaaa33;stroke-width:1px;}#c4-diagram-14 .cluster text{fill:#333;}#c4-diagram-14 .cluster span{color:#333;}#c4-diagram-14 .node .collapsed-indicator{fill:#aaaa33;stroke:none;opacity:0.6;}#c4-diagram-14 .node .collapsed-separator{stroke:#aaaa33;stroke-width:0.75px;}#c4-diagram-14 div.mermaidTooltip{position:absolute;text-align:center;max-width:200px;padding:2px;font-family:"trebuchet ms",verdana,arial,sans-serif;font-size:12px;background:hsl(80, 100%, 96.2745098039%);border:1px solid #aaaa33;border-radius:2px;pointer-events:none;z-index:100;}#c4-diagram-14 .flowchartTitleText{text-anchor:middle;font-size:18px;fill:#333;}#c4-diagram-14 rect.text{fill:none;stroke-width:0;}#c4-diagram-14 .icon-shape,#c4-diagram-14 .image-shape{background-color:rgba(232,232,232, 0.8);text-align:center;}#c4-diagram-14 .icon-shape p,#c4-diagram-14 .image-shape p{background-color:rgba(232,232,232, 0.8);padding:2px;}#c4-diagram-14 .icon-shape .label rect,#c4-diagram-14 .image-shape .label rect{opacity:0.5;background-color:rgba(232,232,232, 0.8);fill:rgba(232,232,232, 0.8);}#c4-diagram-14 .label-icon{display:inline-block;height:1em;overflow:visible;vertical-align:-0.125em;}#c4-diagram-14 .node .label-icon path{fill:currentColor;stroke:revert;stroke-width:revert;}#c4-diagram-14 .node .neo-node{stroke:#9370DB;}#c4-diagram-14 [data-look="neo"].node rect,#c4-diagram-14 [data-look="neo"].cluster rect,#c4-diagram-14 [data-look="neo"].node polygon{stroke:#9370DB;filter:drop-shadow(1px 2px 2px rgba(185, 185, 185, 1));}#c4-diagram-14 [data-look="neo"].swimlane.cluster rect{filter:none;}#c4-diagram-14 [data-look="neo"].node path{stroke:#9370DB;stroke-width:1px;}#c4-diagram-14 [data-look="neo"].node .outer-path{filter:drop-shadow(1px 2px 2px rgba(185, 185, 185, 1));}#c4-diagram-14 [data-look="neo"].node .neo-line path{stroke:#9370DB;filter:none;}#c4-diagram-14 [data-look="neo"].node circle{stroke:#9370DB;filter:drop-shadow(1px 2px 2px rgba(185, 185, 185, 1));}#c4-diagram-14 [data-look="neo"].node circle .state-start{fill:#000000;}#c4-diagram-14 [data-look="neo"].icon-shape .icon{fill:#9370DB;filter:drop-shadow(1px 2px 2px rgba(185, 185, 185, 1));}#c4-diagram-14 [data-look="neo"].icon-shape .icon-neo path{stroke:#9370DB;filter:drop-shadow(1px 2px 2px rgba(185, 185, 185, 1));}#c4-diagram-14 :root{--mermaid-font-family:"trebuchet ms",verdana,arial,sans-serif;}#c4-diagram-14 .person&gt;*{fill:rgb(8, 66, 123)!important;stroke:rgb(5, 46, 86)!important;color:rgb(255, 255, 255)!important;}#c4-diagram-14 .person span{fill:rgb(8, 66, 123)!important;stroke:rgb(5, 46, 86)!important;color:rgb(255, 255, 255)!important;}#c4-diagram-14 .person tspan{fill:rgb(255, 255, 255)!important;}#c4-diagram-14 .system&gt;*{fill:rgb(17, 104, 189)!important;stroke:rgb(11, 72, 132)!important;color:rgb(255, 255, 255)!important;}#c4-diagram-14 .system span{fill:rgb(17, 104, 189)!important;stroke:rgb(11, 72, 132)!important;color:rgb(255, 255, 255)!important;}#c4-diagram-14 .system tspan{fill:rgb(255, 255, 255)!important;}#c4-diagram-14 .container&gt;*{fill:rgb(67, 141, 213)!important;stroke:rgb(46, 98, 149)!important;color:rgb(255, 255, 255)!important;}#c4-diagram-14 .container span{fill:rgb(67, 141, 213)!important;stroke:rgb(46, 98, 149)!important;color:rgb(255, 255, 255)!important;}#c4-diagram-14 .container tspan{fill:rgb(255, 255, 255)!important;}</style><g><marker id="c4-diagram-14_flowchart-v2-pointEnd" class="marker flowchart-v2" viewBox="0 0 10 10" refX="5" refY="5" markerUnits="userSpaceOnUse" markerWidth="8" markerHeight="8" orient="auto"><path d="M 0 0 L 10 5 L 0 10 z" class="arrowMarkerPath" style="stroke-width: 1; stroke-dasharray: 1, 0;"/></marker><marker id="c4-diagram-14_flowchart-v2-pointStart" class="marker flowchart-v2" viewBox="0 0 10 10" refX="4.5" refY="5" markerUnits="userSpaceOnUse" markerWidth="8" markerHeight="8" orient="auto"><path d="M 0 5 L 10 10 L 10 0 z" class="arrowMarkerPath" style="stroke-width: 1; stroke-dasharray: 1, 0;"/></marker><marker id="c4-diagram-14_flowchart-v2-pointEnd-margin" class="marker flowchart-v2" viewBox="0 0 11.5 14" refX="11.5" refY="7" markerUnits="userSpaceOnUse" markerWidth="10.5" markerHeight="14" orient="auto"><path d="M 0 0 L 11.5 7 L 0 14 z" class="arrowMarkerPath" style="stroke-width: 0; stroke-dasharray: 1, 0;"/></marker><marker id="c4-diagram-14_flowchart-v2-pointStart-margin" class="marker flowchart-v2" viewBox="0 0 11.5 14" refX="1" refY="7" markerUnits="userSpaceOnUse" markerWidth="11.5" markerHeight="14" orient="auto"><polygon points="0,7 11.5,14 11.5,0" class="arrowMarkerPath" style="stroke-width: 0; stroke-dasharray: 1, 0;"/></marker><marker id="c4-diagram-14_flowchart-v2-circleEnd" class="marker flowchart-v2" viewBox="0 0 10 10" refX="11" refY="5" markerUnits="userSpaceOnUse" markerWidth="11" markerHeight="11" orient="auto"><circle cx="5" cy="5" r="5" class="arrowMarkerPath" style="stroke-width: 1; stroke-dasharray: 1, 0;"/></marker><marker id="c4-diagram-14_flowchart-v2-circleStart" class="marker flowchart-v2" viewBox="0 0 10 10" refX="-1" refY="5" markerUnits="userSpaceOnUse" markerWidth="11" markerHeight="11" orient="auto"><circle cx="5" cy="5" r="5" class="arrowMarkerPath" style="stroke-width: 1; stroke-dasharray: 1, 0;"/></marker><marker id="c4-diagram-14_flowchart-v2-circleEnd-margin" class="marker flowchart-v2" viewBox="0 0 10 10" refY="5" refX="12.25" markerUnits="userSpaceOnUse" markerWidth="14" markerHeight="14" orient="auto"><circle cx="5" cy="5" r="5" class="arrowMarkerPath" style="stroke-width: 0; stroke-dasharray: 1, 0;"/></marker><marker id="c4-diagram-14_flowchart-v2-circleStart-margin" class="marker flowchart-v2" viewBox="0 0 10 10" refX="-2" refY="5" markerUnits="userSpaceOnUse" markerWidth="14" markerHeight="14" orient="auto"><circle cx="5" cy="5" r="5" class="arrowMarkerPath" style="stroke-width: 0; stroke-dasharray: 1, 0;"/></marker><marker id="c4-diagram-14_flowchart-v2-crossEnd" class="marker cross flowchart-v2" viewBox="0 0 11 11" refX="12" refY="5.2" markerUnits="userSpaceOnUse" markerWidth="11" markerHeight="11" orient="auto"><path d="M 1,1 l 9,9 M 10,1 l -9,9" class="arrowMarkerPath" style="stroke-width: 2; stroke-dasharray: 1, 0;"/></marker><marker id="c4-diagram-14_flowchart-v2-crossStart" class="marker cross flowchart-v2" viewBox="0 0 11 11" refX="-1" refY="5.2" markerUnits="userSpaceOnUse" markerWidth="11" markerHeight="11" orient="auto"><path d="M 1,1 l 9,9 M 10,1 l -9,9" class="arrowMarkerPath" style="stroke-width: 2; stroke-dasharray: 1, 0;"/></marker><marker id="c4-diagram-14_flowchart-v2-crossEnd-margin" class="marker cross flowchart-v2" viewBox="0 0 15 15" refX="17.7" refY="7.5" markerUnits="userSpaceOnUse" markerWidth="12" markerHeight="12" orient="auto"><path d="M 1,1 L 14,14 M 1,14 L 14,1" class="arrowMarkerPath" style="stroke-width: 2.5;"/></marker><marker id="c4-diagram-14_flowchart-v2-crossStart-margin" class="marker cross flowchart-v2" viewBox="0 0 15 15" refX="-3.5" refY="7.5" markerUnits="userSpaceOnUse" markerWidth="12" markerHeight="12" orient="auto"><path d="M 1,1 L 14,14 M 1,14 L 14,1" class="arrowMarkerPath" style="stroke-width: 2.5; stroke-dasharray: 1, 0;"/></marker><g class="root"><g class="clusters"/><g class="edgePaths"><path d="M168.433,327.5L172.516,327.417C176.6,327.333,184.766,327.167,192.35,327.083C199.933,327,206.933,327,210.433,327L213.933,327" id="c4-diagram-14-L_ev_setup_0" class="edge-thickness-normal edge-pattern-solid edge-thickness-normal edge-pattern-solid flowchart-link" style=";" data-edge="true" data-et="edge" data-id="L_ev_setup_0" data-points="W3sieCI6MTY4LjQzMzA4NzQzMTgyNzI2LCJ5IjozMjcuNX0seyJ4IjoxOTIuOTMzMDkwMjA5OTYwOTQsInkiOjMyN30seyJ4IjoyMTcuOTMzMDkwMjA5OTYwOTQsInkiOjMyN31d" data-look="classic" marker-end="url(#c4-diagram-14_flowchart-v2-pointEnd)"/><path d="M396.094,240L413.9,207.833C431.707,175.667,467.32,111.333,492.991,79.167C518.662,47,534.391,47,542.256,47L550.121,47" id="c4-diagram-14-L_setup_lint_0" class="edge-thickness-normal edge-pattern-solid edge-thickness-normal edge-pattern-solid flowchart-link" style=";" data-edge="true" data-et="edge" data-id="L_setup_lint_0" data-points="W3sieCI6Mzk2LjA5MzgwNDQ5NTY3NTIsInkiOjI0MH0seyJ4Ijo1MDIuOTMzMDkwMjA5OTYwOTQsInkiOjQ3fSx7IngiOjU1NC4xMjA1OTAyMDk5NjA5LCJ5Ijo0N31d" data-look="classic" marker-end="url(#c4-diagram-14_flowchart-v2-pointEnd)"/><path d="M436.65,240L447.697,229.167C458.744,218.333,480.839,196.667,497.895,185.833C514.951,175,526.97,175,532.979,175L538.988,175" id="c4-diagram-14-L_setup_sq_0" class="edge-thickness-normal edge-pattern-solid edge-thickness-normal edge-pattern-solid flowchart-link" style=";" data-edge="true" data-et="edge" data-id="L_setup_sq_0" data-points="W3sieCI6NDM2LjY1MDE5NTQ3MzExODg2LCJ5IjoyNDB9LHsieCI6NTAyLjkzMzA5MDIwOTk2MDk0LCJ5IjoxNzV9LHsieCI6NTQyLjk4Nzc3NzcwOTk2MDksInkiOjE3NX1d" data-look="classic" marker-end="url(#c4-diagram-14_flowchart-v2-pointEnd)"/><path d="M477.933,327L482.1,327C486.266,327,494.6,327,502.266,327C509.933,327,516.933,327,520.433,327L523.933,327" id="c4-diagram-14-L_setup_my_0" class="edge-thickness-normal edge-pattern-solid edge-thickness-normal edge-pattern-solid flowchart-link" style=";" data-edge="true" data-et="edge" data-id="L_setup_my_0" data-points="W3sieCI6NDc3LjkzMzA5MDIwOTk2MDk0LCJ5IjozMjd9LHsieCI6NTAyLjkzMzA5MDIwOTk2MDk0LCJ5IjozMjd9LHsieCI6NTI3LjkzMzA5MDIwOTk2MDksInkiOjMyN31d" data-look="classic" marker-end="url(#c4-diagram-14_flowchart-v2-pointEnd)"/><path d="M424.552,414L437.616,428.833C450.679,443.667,476.806,473.333,493.37,488.167C509.933,503,516.933,503,520.433,503L523.933,503" id="c4-diagram-14-L_setup_e2e_0" class="edge-thickness-normal edge-pattern-solid edge-thickness-normal edge-pattern-solid flowchart-link" style=";" data-edge="true" data-et="edge" data-id="L_setup_e2e_0" data-points="W3sieCI6NDI0LjU1MjQwODM5MTc3OTEsInkiOjQxNH0seyJ4Ijo1MDIuOTMzMDkwMjA5OTYwOTQsInkiOjUwM30seyJ4Ijo1MjcuOTMzMDkwMjA5OTYwOSwieSI6NTAzfV0=" data-look="classic" marker-end="url(#c4-diagram-14_flowchart-v2-pointEnd)"/><path d="M382.688,414L402.729,464.167C422.77,514.333,462.851,614.667,486.392,664.833C509.933,715,516.933,715,520.433,715L523.933,715" id="c4-diagram-14-L_setup_sc_0" class="edge-thickness-normal edge-pattern-solid edge-thickness-normal edge-pattern-solid flowchart-link" style=";" data-edge="true" data-et="edge" data-id="L_setup_sc_0" data-points="W3sieCI6MzgyLjY4ODI0NDg0OTEzNjIsInkiOjQxNH0seyJ4Ijo1MDIuOTMzMDkwMjA5OTYwOTQsInkiOjcxNX0seyJ4Ijo1MjcuOTMzMDkwMjA5OTYwOSwieSI6NzE1fV0=" data-look="classic" marker-end="url(#c4-diagram-14_flowchart-v2-pointEnd)"/></g><g class="edgeLabels"><g class="edgeLabel"><g class="label" data-id="L_ev_setup_0" transform="translate(0, 0)"><foreignObject width="0" height="0"><div xmlns="http://www.w3.org/1999/xhtml" class="labelBkg" style="display: table-cell; white-space: nowrap; line-height: 1.5; max-width: 200px; text-align: center;"><span class="edgeLabel"></span></div></foreignObject></g></g><g class="edgeLabel"><g class="label" data-id="L_setup_lint_0" transform="translate(0, 0)"><foreignObject width="0" height="0"><div xmlns="http://www.w3.org/1999/xhtml" class="labelBkg" style="display: table-cell; white-space: nowrap; line-height: 1.5; max-width: 200px; text-align: center;"><span class="edgeLabel"></span></div></foreignObject></g></g><g class="edgeLabel"><g class="label" data-id="L_setup_sq_0" transform="translate(0, 0)"><foreignObject width="0" height="0"><div xmlns="http://www.w3.org/1999/xhtml" class="labelBkg" style="display: table-cell; white-space: nowrap; line-height: 1.5; max-width: 200px; text-align: center;"><span class="edgeLabel"></span></div></foreignObject></g></g><g class="edgeLabel"><g class="label" data-id="L_setup_my_0" transform="translate(0, 0)"><foreignObject width="0" height="0"><div xmlns="http://www.w3.org/1999/xhtml" class="labelBkg" style="display: table-cell; white-space: nowrap; line-height: 1.5; max-width: 200px; text-align: center;"><span class="edgeLabel"></span></div></foreignObject></g></g><g class="edgeLabel"><g class="label" data-id="L_setup_e2e_0" transform="translate(0, 0)"><foreignObject width="0" height="0"><div xmlns="http://www.w3.org/1999/xhtml" class="labelBkg" style="display: table-cell; white-space: nowrap; line-height: 1.5; max-width: 200px; text-align: center;"><span class="edgeLabel"></span></div></foreignObject></g></g><g class="edgeLabel"><g class="label" data-id="L_setup_sc_0" transform="translate(0, 0)"><foreignObject width="0" height="0"><div xmlns="http://www.w3.org/1999/xhtml" class="labelBkg" style="display: table-cell; white-space: nowrap; line-height: 1.5; max-width: 200px; text-align: center;"><span class="edgeLabel"></span></div></foreignObject></g></g></g><g class="nodes"><g class="node default person" id="c4-diagram-14-flowchart-ev-0" data-look="classic" transform="translate(87.96654510498047, 327)"><g class="basic label-container outer-path"><path d="M-60.4765625 -19.5 C-16.554911638256407 -19.5, 27.366739223487187 -19.5, 60.4765625 -19.5 C60.4765625 -19.5, 60.4765625 -19.5, 60.4765625 -19.5 C60.93746735230527 -19.485219678483443, 61.39837220461054 -19.47043935696688, 61.7259317896239 -19.45993515863156 C62.15480884946099 -19.418561904469204, 62.58368590929809 -19.377188650306845, 62.970167152847864 -19.3399052695533 C63.22435724200807 -19.29880978721146, 63.47854733116828 -19.25771430486962, 64.20415575967675 -19.140403561325776 C64.45169995957413 -19.08390321307607, 64.6992441594715 -19.02740286482636, 65.42282688623538 -18.862249829261074 C65.70123195930702 -18.779620664951462, 65.97963703237866 -18.696991500641854, 66.6211727514606 -18.50658706670804 C66.87720100540825 -18.41236630255607, 67.1332292593559 -18.3181455384041, 67.7942690951478 -18.074876768247425 C68.21970690014845 -17.886548072137725, 68.64514470514911 -17.698219376028028, 68.93729541279238 -17.568892924097174 C69.30995527502911 -17.374476512668306, 69.68261513726584 -17.18006010123944, 70.04555476407678 -16.990714730406097 C70.2757810067595 -16.85115022913225, 70.50600724944223 -16.711585727858406, 71.1144930736057 -16.342718045390892 C71.4564931346394 -16.10415360775781, 71.79849319567312 -15.865589170124723, 72.13971784457871 -15.627565626425154 C72.42440136627373 -15.400538093620053, 72.70908488796874 -15.17351056081495, 73.11701620850187 -14.848196188198123 C73.46472490789422 -14.532416347278035, 73.81243360728658 -14.216636506357949, 74.04237223676799 -14.007812326905688 C74.3082374869455 -13.733284628154422, 74.57410273712301 -13.458756929403155, 74.91198344296865 -13.10986736009568 C75.21582303654912 -12.752960084513406, 75.5196626301296 -12.396052808931131, 75.72227640812658 -12.158051136245305 C75.87811833120527 -11.949237156811124, 76.03396025428395 -11.740423177376941, 76.46992146464063 -11.156274872382312 C76.60709864835819 -10.945533880960628, 76.74427583207573 -10.734792889538944, 77.15184637860425 -10.108655082055241 C77.32257052788115 -9.80551706731937, 77.49329467715806 -9.502379052583498, 77.7652489742735 -9.019496659696287 C77.95385332103525 -8.627855698158974, 78.14245766779699 -8.23621473662166, 78.30760864880834 -7.893275190886684 C78.40429987638208 -7.654445989381838, 78.50099110395581 -7.415616787876991, 78.77669672997033 -6.734618561215508 C78.87351054354926 -6.443030779902199, 78.97032435712818 -6.15144299858889, 79.17058563421489 -5.548287939305138 C79.28381530938518 -5.116494113829177, 79.39704498455546 -4.684700288353216, 79.48765678754556 -4.339158212148133 C79.54335883748364 -4.05313995834856, 79.5990608874217 -3.767121704548987, 79.72660727658177 -3.1121979531509023 C79.78335444225654 -2.672078142172783, 79.8401016079313 -2.231958331194664, 79.88645520250937 -1.872449005199798 C79.90998129007264 -1.5060112014857887, 79.9335073776359 -1.1395733977717795, 79.96654371591342 -0.6250057626472757 C79.96654371591342 -0.2739410840888369, 79.96654371591342 0.07712359446960193, 79.96654371591342 0.625005762647271 C79.94966156414866 0.8879589034109983, 79.93277941238391 1.1509120441747256, 79.88645520250937 1.8724490051997846 C79.8368083927105 2.257499858128389, 79.78716158291161 2.642550711056993, 79.72660727658177 3.1121979531508885 C79.63296991085512 3.593006035893007, 79.53933254512847 4.073814118635126, 79.48765678754556 4.339158212148129 C79.37231931323238 4.778989989281854, 79.2569818389192 5.218821766415578, 79.17058563421489 5.548287939305125 C79.07793587946954 5.827334238864403, 78.98528612472417 6.106380538423681, 78.77669672997033 6.734618561215495 C78.63417342790545 7.086653872816331, 78.49165012584058 7.438689184417167, 78.30760864880834 7.893275190886679 C78.17420185243932 8.1702972579951, 78.04079505607032 8.447319325103521, 77.7652489742735 9.019496659696284 C77.6218517672023 9.27411292139297, 77.4784545601311 9.528729183089657, 77.15184637860425 10.108655082055236 C76.97314363591443 10.38319048323223, 76.7944408932246 10.657725884409224, 76.46992146464065 11.156274872382301 C76.21639067922581 11.495983027708489, 75.96285989381096 11.835691183034674, 75.72227640812659 12.158051136245302 C75.45379227649595 12.473427874438524, 75.1853081448653 12.788804612631749, 74.91198344296866 13.10986736009567 C74.6852318653637 13.344006980623526, 74.45848028775876 13.578146601151383, 74.04237223676799 14.007812326905684 C73.71803961199275 14.302362635355555, 73.3937069872175 14.596912943805426, 73.1170162085019 14.848196188198111 C72.78574423298772 15.112376773153157, 72.45447225747357 15.376557358108203, 72.13971784457871 15.627565626425152 C71.89981311372263 15.794912781361937, 71.65990838286655 15.962259936298723, 71.1144930736057 16.34271804539089 C70.79903875968267 16.53394830430635, 70.48358444575965 16.72517856322181, 70.04555476407678 16.990714730406093 C69.76735512222832 17.13585130536306, 69.48915548037985 17.28098788032003, 68.93729541279238 17.56889292409717 C68.67320041088594 17.685799947341263, 68.40910540897951 17.802706970585355, 67.7942690951478 18.07487676824742 C67.35129729539895 18.237894485341425, 66.9083254956501 18.400912202435432, 66.62117275146062 18.506587066708033 C66.16333838117143 18.642469904588218, 65.70550401088224 18.7783527424684, 65.42282688623541 18.86224982926107 C64.9636548886252 18.96705284133829, 64.504482891015 19.071855853415506, 64.20415575967677 19.140403561325773 C63.82529608577622 19.20165465530136, 63.44643641187568 19.26290574927695, 62.97016715284788 19.3399052695533 C62.63931307523154 19.371822364510702, 62.308458997615205 19.403739459468106, 61.7259317896239 19.45993515863156 C61.269546816237664 19.474570536428594, 60.81316184285143 19.48920591422563, 60.47656250000001 19.5 C60.47656250000001 19.5, 60.4765625 19.5, 60.4765625 19.5 C31.79777390705592 19.5, 3.118985314111839 19.5, -60.47656249999999 19.5 C-60.94753869975448 19.484896709973434, -61.41851489950897 19.469793419946868, -61.72593178962389 19.45993515863156 C-62.01399367341051 19.432146175147764, -62.30205555719713 19.404357191663973, -62.97016715284787 19.3399052695533 C-63.25256315345655 19.294249674188578, -63.53495915406523 19.24859407882386, -64.20415575967675 19.140403561325773 C-64.68151285580846 19.031449919179877, -65.15886995194018 18.922496277033982, -65.42282688623538 18.862249829261074 C-65.71953903653495 18.774187220526024, -66.01625118683452 18.68612461179097, -66.62117275146059 18.506587066708043 C-66.85665321573195 18.419928079098636, -67.0921336800033 18.33326909148923, -67.7942690951478 18.074876768247425 C-68.03248295913963 17.969426557021446, -68.27069682313147 17.863976345795468, -68.93729541279238 17.568892924097174 C-69.17329179283675 17.44577376379092, -69.40928817288113 17.322654603484665, -70.04555476407678 16.990714730406097 C-70.32163766963085 16.82335165061598, -70.59772057518492 16.655988570825862, -71.11449307360569 16.3427180453909 C-71.43765498958254 16.11729428225932, -71.7608169055594 15.89187051912774, -72.13971784457871 15.627565626425156 C-72.35307621202996 15.457418006087387, -72.56643457948122 15.287270385749618, -73.11701620850187 14.848196188198125 C-73.46440437823185 14.53270744383665, -73.81179254796184 14.217218699475172, -74.04237223676797 14.007812326905697 C-74.37161131047999 13.667845952267372, -74.70085038419202 13.327879577629046, -74.91198344296865 13.109867360095677 C-75.18091772011913 12.793961855360848, -75.4498519972696 12.478056350626018, -75.72227640812658 12.158051136245307 C-75.95809324373295 11.842078059888456, -76.1939100793393 11.526104983531605, -76.46992146464063 11.156274872382316 C-76.73639154615648 10.746905269938129, -77.00286162767233 10.337535667493942, -77.15184637860425 10.108655082055249 C-77.3229370674615 9.804866239178311, -77.49402775631876 9.501077396301376, -77.7652489742735 9.019496659696289 C-77.95909144996331 8.61697861136185, -78.15293392565312 8.21446056302741, -78.30760864880834 7.893275190886686 C-78.45664943048968 7.525141578626292, -78.60569021217101 7.1570079663658985, -78.77669672997033 6.73461856121551 C-78.86879010760546 6.457247980865562, -78.9608834852406 6.179877400515615, -79.17058563421489 5.5482879393051325 C-79.26783800895417 5.177422484978388, -79.36509038369346 4.806557030651644, -79.48765678754556 4.339158212148136 C-79.53584037403598 4.091745679124445, -79.5840239605264 3.8443331461007544, -79.72660727658177 3.112197953150904 C-79.77837519748915 2.7106961813254946, -79.83014311839655 2.309194409500085, -79.88645520250937 1.872449005199809 C-79.91321591375004 1.4556293267690779, -79.9399766249907 1.0388096483383467, -79.96654371591342 0.6250057626472781 C-79.96654371591342 0.3185879557925451, -79.96654371591342 0.012170148937812098, -79.96654371591342 -0.6250057626472687 C-79.93606070580155 -1.09980325058251, -79.90557769568969 -1.5746007385177512, -79.88645520250937 -1.8724490051997822 C-79.85427681266881 -2.122018242461353, -79.82209842282825 -2.371587479722924, -79.72660727658177 -3.112197953150895 C-79.67620956402646 -3.370979555562097, -79.62581185147116 -3.629761157973299, -79.48765678754556 -4.339158212148126 C-79.40403307574685 -4.658051667982569, -79.32040936394814 -4.976945123817012, -79.17058563421489 -5.548287939305123 C-79.06300446443277 -5.872305281957206, -78.95542329465066 -6.19632262460929, -78.77669672997033 -6.734618561215485 C-78.64112512802399 -7.069483039121557, -78.50555352607765 -7.404347517027627, -78.30760864880834 -7.893275190886676 C-78.11058028798902 -8.302408797859576, -77.91355192716969 -8.711542404832475, -77.7652489742735 -9.019496659696282 C-77.62966905727387 -9.260232531284448, -77.49408914027423 -9.500968402872614, -77.15184637860425 -10.108655082055243 C-76.9852471172843 -10.364596285608265, -76.81864785596437 -10.620537489161288, -76.46992146464063 -11.156274872382308 C-76.28926672914244 -11.39833575996491, -76.10861199364426 -11.640396647547513, -75.72227640812659 -12.158051136245302 C-75.4071433840618 -12.528224317888853, -75.092010359997 -12.898397499532404, -74.91198344296866 -13.10986736009567 C-74.68329289962837 -13.346009121937307, -74.45460235628809 -13.582150883778944, -74.04237223676799 -14.007812326905677 C-73.8038518646307 -14.224430217977547, -73.56533149249341 -14.441048109049419, -73.1170162085019 -14.848196188198107 C-72.84311661447087 -15.06662382566354, -72.56921702043985 -15.28505146312897, -72.13971784457871 -15.627565626425149 C-71.82049073418695 -15.850244639515564, -71.50126362379518 -16.07292365260598, -71.11449307360571 -16.342718045390885 C-70.88356975612282 -16.482705117505056, -70.65264643863993 -16.622692189619226, -70.04555476407678 -16.99071473040609 C-69.60793647699272 -17.21901991046996, -69.17031818990866 -17.44732509053383, -68.9372954127924 -17.56889292409717 C-68.52454564486935 -17.75160500256986, -68.1117958769463 -17.93431708104255, -67.79426909514781 -18.07487676824742 C-67.42968445445896 -18.209047286204388, -67.06509981377012 -18.343217804161355, -66.62117275146062 -18.506587066708033 C-66.26471196070777 -18.612382758302605, -65.90825116995492 -18.718178449897177, -65.42282688623541 -18.862249829261067 C-65.09060085438804 -18.938078253052765, -64.75837482254066 -19.013906676844464, -64.20415575967677 -19.140403561325773 C-63.78499271196959 -19.208170592221087, -63.365829664262414 -19.2759376231164, -62.97016715284788 -19.3399052695533 C-62.60778039186295 -19.37486428455167, -62.245393630878034 -19.40982329955004, -61.7259317896239 -19.45993515863156 C-61.36644010602162 -19.47146335721657, -61.00694842241934 -19.482991555801583, -60.47656250000001 -19.5 C-60.47656250000001 -19.5, -60.4765625 -19.5, -60.4765625 -19.5" stroke="none" stroke-width="0" fill="#08427b" style="fill:#08427b !important;stroke:#052e56 !important"/><path d="M-60.4765625 -19.5 C-36.21414061099718 -19.5, -11.951718721994347 -19.5, 60.4765625 -19.5 M-60.4765625 -19.5 C-23.73200877948213 -19.5, 13.012544941035742 -19.5, 60.4765625 -19.5 M60.4765625 -19.5 C60.4765625 -19.5, 60.4765625 -19.5, 60.4765625 -19.5 M60.4765625 -19.5 C60.4765625 -19.5, 60.4765625 -19.5, 60.4765625 -19.5 M60.4765625 -19.5 C60.90470883902069 -19.4862701802439, 61.33285517804138 -19.472540360487802, 61.7259317896239 -19.45993515863156 M60.4765625 -19.5 C60.88340172379053 -19.486953457957547, 61.29024094758106 -19.473906915915094, 61.7259317896239 -19.45993515863156 M61.7259317896239 -19.45993515863156 C61.99729618940418 -19.433756961348195, 62.268660589184464 -19.40757876406483, 62.970167152847864 -19.3399052695533 M61.7259317896239 -19.45993515863156 C61.98460748399271 -19.43498102549884, 62.24328317836152 -19.410026892366115, 62.970167152847864 -19.3399052695533 M62.970167152847864 -19.3399052695533 C63.448156266515156 -19.26262769651651, 63.92614538018245 -19.185350123479722, 64.20415575967675 -19.140403561325776 M62.970167152847864 -19.3399052695533 C63.226314754218464 -19.298493311818017, 63.48246235558906 -19.257081354082736, 64.20415575967675 -19.140403561325776 M64.20415575967675 -19.140403561325776 C64.4872364816664 -19.075792233805988, 64.77031720365605 -19.011180906286196, 65.42282688623538 -18.862249829261074 M64.20415575967675 -19.140403561325776 C64.59970423291743 -19.050122203503605, 64.9952527061581 -18.959840845681434, 65.42282688623538 -18.862249829261074 M65.42282688623538 -18.862249829261074 C65.79330963589261 -18.75229249386645, 66.16379238554984 -18.64233515847182, 66.6211727514606 -18.50658706670804 M65.42282688623538 -18.862249829261074 C65.73126226856719 -18.770707826795356, 66.03969765089899 -18.679165824329637, 66.6211727514606 -18.50658706670804 M66.6211727514606 -18.50658706670804 C67.00734884295075 -18.36447069526701, 67.39352493444089 -18.22235432382598, 67.7942690951478 -18.074876768247425 M66.6211727514606 -18.50658706670804 C66.93681618344006 -18.390427365963703, 67.25245961541951 -18.274267665219362, 67.7942690951478 -18.074876768247425 M67.7942690951478 -18.074876768247425 C68.12040594342172 -17.93050566002243, 68.44654279169563 -17.786134551797435, 68.93729541279238 -17.568892924097174 M67.7942690951478 -18.074876768247425 C68.06640706947742 -17.954409359697884, 68.33854504380704 -17.833941951148343, 68.93729541279238 -17.568892924097174 M68.93729541279238 -17.568892924097174 C69.24671087993654 -17.40747107307813, 69.55612634708069 -17.246049222059092, 70.04555476407678 -16.990714730406097 M68.93729541279238 -17.568892924097174 C69.26394344343689 -17.398480855737983, 69.59059147408139 -17.228068787378795, 70.04555476407678 -16.990714730406097 M70.04555476407678 -16.990714730406097 C70.27813946155109 -16.84972051997777, 70.51072415902541 -16.70872630954944, 71.1144930736057 -16.342718045390892 M70.04555476407678 -16.990714730406097 C70.46708279620809 -16.73518196015442, 70.8886108283394 -16.479649189902744, 71.1144930736057 -16.342718045390892 M71.1144930736057 -16.342718045390892 C71.51172701598317 -16.065624843168585, 71.90896095836064 -15.788531640946275, 72.13971784457871 -15.627565626425154 M71.1144930736057 -16.342718045390892 C71.49244387981726 -16.079075924204417, 71.87039468602882 -15.815433803017939, 72.13971784457871 -15.627565626425154 M72.13971784457871 -15.627565626425154 C72.49609223983343 -15.343366529730451, 72.85246663508816 -15.059167433035748, 73.11701620850187 -14.848196188198123 M72.13971784457871 -15.627565626425154 C72.46595757052039 -15.36739812659038, 72.79219729646205 -15.107230626755609, 73.11701620850187 -14.848196188198123 M73.11701620850187 -14.848196188198123 C73.37935308006402 -14.609948782498645, 73.64168995162616 -14.371701376799166, 74.04237223676799 -14.007812326905688 M73.11701620850187 -14.848196188198123 C73.34432567614263 -14.641759743965718, 73.57163514378341 -14.435323299733312, 74.04237223676799 -14.007812326905688 M74.04237223676799 -14.007812326905688 C74.33480644168402 -13.705850001035147, 74.62724064660006 -13.403887675164606, 74.91198344296865 -13.10986736009568 M74.04237223676799 -14.007812326905688 C74.31513389729149 -13.726163518266365, 74.587895557815 -13.444514709627041, 74.91198344296865 -13.10986736009568 M74.91198344296865 -13.10986736009568 C75.13220300283524 -12.851184934228446, 75.35242256270182 -12.59250250836121, 75.72227640812658 -12.158051136245305 M74.91198344296865 -13.10986736009568 C75.12085597322331 -12.864513800874878, 75.329728503478 -12.619160241654075, 75.72227640812658 -12.158051136245305 M75.72227640812658 -12.158051136245305 C75.9868904370743 -11.803492444289317, 76.25150446602203 -11.448933752333327, 76.46992146464063 -11.156274872382312 M75.72227640812658 -12.158051136245305 C75.9779137224193 -11.815520424131487, 76.23355103671203 -11.472989712017668, 76.46992146464063 -11.156274872382312 M76.46992146464063 -11.156274872382312 C76.61563569868007 -10.932418679147219, 76.76134993271951 -10.708562485912125, 77.15184637860425 -10.108655082055241 M76.46992146464063 -11.156274872382312 C76.71964699157594 -10.77262940231632, 76.96937251851125 -10.388983932250325, 77.15184637860425 -10.108655082055241 M77.15184637860425 -10.108655082055241 C77.29758742670555 -9.849877093269964, 77.44332847480686 -9.591099104484686, 77.7652489742735 -9.019496659696287 M77.15184637860425 -10.108655082055241 C77.3407051388429 -9.77331722922829, 77.52956389908157 -9.437979376401339, 77.7652489742735 -9.019496659696287 M77.7652489742735 -9.019496659696287 C77.97545587465827 -8.582997533340171, 78.18566277504303 -8.146498406984053, 78.30760864880834 -7.893275190886684 M77.7652489742735 -9.019496659696287 C77.8840578189186 -8.772787551688696, 78.00286666356371 -8.526078443681103, 78.30760864880834 -7.893275190886684 M78.30760864880834 -7.893275190886684 C78.45956455691133 -7.5179411600046775, 78.61152046501432 -7.142607129122671, 78.77669672997033 -6.734618561215508 M78.30760864880834 -7.893275190886684 C78.48829686687468 -7.446971798893777, 78.66898508494103 -7.00066840690087, 78.77669672997033 -6.734618561215508 M78.77669672997033 -6.734618561215508 C78.92127912909746 -6.299159411121522, 79.0658615282246 -5.863700261027537, 79.17058563421489 -5.548287939305138 M78.77669672997033 -6.734618561215508 C78.87769819912597 -6.430418228517426, 78.97869966828162 -6.126217895819344, 79.17058563421489 -5.548287939305138 M79.17058563421489 -5.548287939305138 C79.29272938229276 -5.082500890448911, 79.41487313037064 -4.616713841592683, 79.48765678754556 -4.339158212148133 M79.17058563421489 -5.548287939305138 C79.27845797024952 -5.13692396983889, 79.38633030628415 -4.725560000372643, 79.48765678754556 -4.339158212148133 M79.48765678754556 -4.339158212148133 C79.56577302127499 -3.938047861819345, 79.64388925500442 -3.536937511490557, 79.72660727658177 -3.1121979531509023 M79.48765678754556 -4.339158212148133 C79.57854254420941 -3.872479060390706, 79.66942830087326 -3.405799908633279, 79.72660727658177 -3.1121979531509023 M79.72660727658177 -3.1121979531509023 C79.77929436362243 -2.7035673103057993, 79.83198145066306 -2.2949366674606964, 79.88645520250937 -1.872449005199798 M79.72660727658177 -3.1121979531509023 C79.77812608533351 -2.712628246011911, 79.82964489408525 -2.3130585388729195, 79.88645520250937 -1.872449005199798 M79.88645520250937 -1.872449005199798 C79.9033214591716 -1.6097434434882327, 79.92018771583383 -1.3470378817766675, 79.96654371591342 -0.6250057626472757 M79.88645520250937 -1.872449005199798 C79.91684575382246 -1.3990916376870417, 79.94723630513553 -0.9257342701742854, 79.96654371591342 -0.6250057626472757 M79.96654371591342 -0.6250057626472757 C79.96654371591342 -0.2832562407979985, 79.96654371591342 0.05849328105127871, 79.96654371591342 0.625005762647271 M79.96654371591342 -0.6250057626472757 C79.96654371591342 -0.2639697191263414, 79.96654371591342 0.09706632439459295, 79.96654371591342 0.625005762647271 M79.96654371591342 0.625005762647271 C79.93869430345525 1.058782841324407, 79.91084489099707 1.492559920001543, 79.88645520250937 1.8724490051997846 M79.96654371591342 0.625005762647271 C79.94122381520789 1.0193836539918477, 79.91590391450237 1.4137615453364245, 79.88645520250937 1.8724490051997846 M79.88645520250937 1.8724490051997846 C79.82689891122378 2.334355839690822, 79.7673426199382 2.79626267418186, 79.72660727658177 3.1121979531508885 M79.88645520250937 1.8724490051997846 C79.83911901420166 2.2395791341267093, 79.79178282589395 2.606709263053634, 79.72660727658177 3.1121979531508885 M79.72660727658177 3.1121979531508885 C79.67486747979738 3.377870874428793, 79.623127683013 3.643543795706697, 79.48765678754556 4.339158212148129 M79.72660727658177 3.1121979531508885 C79.67346114713291 3.385092095432363, 79.62031501768405 3.6579862377138377, 79.48765678754556 4.339158212148129 M79.48765678754556 4.339158212148129 C79.37593358797304 4.765207193259181, 79.2642103884005 5.191256174370234, 79.17058563421489 5.548287939305125 M79.48765678754556 4.339158212148129 C79.40788485841291 4.64336315130371, 79.32811292928027 4.94756809045929, 79.17058563421489 5.548287939305125 M79.17058563421489 5.548287939305125 C79.04487989224839 5.926893605618145, 78.91917415028189 6.305499271931163, 78.77669672997033 6.734618561215495 M79.17058563421489 5.548287939305125 C79.03432956386347 5.958669513746997, 78.89807349351204 6.369051088188869, 78.77669672997033 6.734618561215495 M78.77669672997033 6.734618561215495 C78.62867258977978 7.10024104933821, 78.48064844958922 7.465863537460926, 78.30760864880834 7.893275190886679 M78.77669672997033 6.734618561215495 C78.60506663830931 7.158548205860281, 78.4334365466483 7.582477850505067, 78.30760864880834 7.893275190886679 M78.30760864880834 7.893275190886679 C78.10223106773253 8.319746132366854, 77.89685348665674 8.746217073847028, 77.7652489742735 9.019496659696284 M78.30760864880834 7.893275190886679 C78.16122302791324 8.197248064825896, 78.01483740701813 8.501220938765112, 77.7652489742735 9.019496659696284 M77.7652489742735 9.019496659696284 C77.56484318832081 9.37533742594165, 77.36443740236811 9.731178192187016, 77.15184637860425 10.108655082055236 M77.7652489742735 9.019496659696284 C77.59118226993802 9.328569719409064, 77.41711556560253 9.637642779121844, 77.15184637860425 10.108655082055236 M77.15184637860425 10.108655082055236 C76.9277783656096 10.452883720701198, 76.70371035261495 10.797112359347159, 76.46992146464065 11.156274872382301 M77.15184637860425 10.108655082055236 C76.90128889925764 10.493578654435511, 76.65073141991101 10.878502226815788, 76.46992146464065 11.156274872382301 M76.46992146464065 11.156274872382301 C76.22890195415633 11.479219059102187, 75.987882443672 11.802163245822072, 75.72227640812659 12.158051136245302 M76.46992146464065 11.156274872382301 C76.19332918520429 11.526883328751985, 75.91673690576795 11.89749178512167, 75.72227640812659 12.158051136245302 M75.72227640812659 12.158051136245302 C75.4036370617279 12.532343043617635, 75.08499771532922 12.906634950989968, 74.91198344296866 13.10986736009567 M75.72227640812659 12.158051136245302 C75.52876642731499 12.385358970736437, 75.3352564465034 12.612666805227573, 74.91198344296866 13.10986736009567 M74.91198344296866 13.10986736009567 C74.65531468670245 13.374898923837316, 74.39864593043626 13.639930487578964, 74.04237223676799 14.007812326905684 M74.91198344296866 13.10986736009567 C74.61340966148849 13.418169302837288, 74.31483588000833 13.726471245578907, 74.04237223676799 14.007812326905684 M74.04237223676799 14.007812326905684 C73.77988192888465 14.246199079412364, 73.51739162100132 14.484585831919043, 73.1170162085019 14.848196188198111 M74.04237223676799 14.007812326905684 C73.69804391516631 14.320522198156175, 73.35371559356464 14.633232069406665, 73.1170162085019 14.848196188198111 M73.1170162085019 14.848196188198111 C72.79546272522904 15.104626534210652, 72.47390924195619 15.361056880223193, 72.13971784457871 15.627565626425152 M73.1170162085019 14.848196188198111 C72.80913447801622 15.093723675183496, 72.50125274753056 15.339251162168878, 72.13971784457871 15.627565626425152 M72.13971784457871 15.627565626425152 C71.74760817469918 15.901084357979075, 71.35549850481966 16.174603089532997, 71.1144930736057 16.34271804539089 M72.13971784457871 15.627565626425152 C71.86342222786655 15.820297487999085, 71.58712661115437 16.013029349573017, 71.1144930736057 16.34271804539089 M71.1144930736057 16.34271804539089 C70.7895613095074 16.53969359029827, 70.46462954540912 16.736669135205656, 70.04555476407678 16.990714730406093 M71.1144930736057 16.34271804539089 C70.87669028811871 16.48687549143739, 70.6388875026317 16.631032937483894, 70.04555476407678 16.990714730406093 M70.04555476407678 16.990714730406093 C69.7917920057768 17.123102598868392, 69.53802924747681 17.25549046733069, 68.93729541279238 17.56889292409717 M70.04555476407678 16.990714730406093 C69.77875277193381 17.12990515881225, 69.51195077979085 17.269095587218402, 68.93729541279238 17.56889292409717 M68.93729541279238 17.56889292409717 C68.54176984371814 17.743980360677195, 68.14624427464392 17.91906779725722, 67.7942690951478 18.07487676824742 M68.93729541279238 17.56889292409717 C68.60309526045259 17.716833417842707, 68.26889510811282 17.864773911588244, 67.7942690951478 18.07487676824742 M67.7942690951478 18.07487676824742 C67.45850517026217 18.19844099637303, 67.12274124537655 18.322005224498636, 66.62117275146062 18.506587066708033 M67.7942690951478 18.07487676824742 C67.35336151769671 18.237134832454387, 66.91245394024564 18.399392896661354, 66.62117275146062 18.506587066708033 M66.62117275146062 18.506587066708033 C66.32515494048462 18.59444359917651, 66.02913712950864 18.682300131644986, 65.42282688623541 18.86224982926107 M66.62117275146062 18.506587066708033 C66.32179636232088 18.595440407545972, 66.02241997318114 18.684293748383915, 65.42282688623541 18.86224982926107 M65.42282688623541 18.86224982926107 C65.01091690143498 18.956265595327913, 64.59900691663455 19.05028136139476, 64.20415575967677 19.140403561325773 M65.42282688623541 18.86224982926107 C65.05185196565064 18.94692243404695, 64.68087704506586 19.03159503883283, 64.20415575967677 19.140403561325773 M64.20415575967677 19.140403561325773 C63.72358653064719 19.218098267405242, 63.243017301617606 19.295792973484716, 62.97016715284788 19.3399052695533 M64.20415575967677 19.140403561325773 C63.93727346602724 19.18355102085993, 63.67039117237771 19.226698480394088, 62.97016715284788 19.3399052695533 M62.97016715284788 19.3399052695533 C62.48452477980141 19.386754605210687, 61.998882406754944 19.43360394086807, 61.7259317896239 19.45993515863156 M62.97016715284788 19.3399052695533 C62.53177872800048 19.38219607365911, 62.09339030315309 19.424486877764917, 61.7259317896239 19.45993515863156 M61.7259317896239 19.45993515863156 C61.31043629227441 19.473259290518634, 60.89494079492492 19.486583422405708, 60.47656250000001 19.5 M61.7259317896239 19.45993515863156 C61.381614837650076 19.47097673310907, 61.037297885676246 19.48201830758658, 60.47656250000001 19.5 M60.47656250000001 19.5 C60.47656250000001 19.5, 60.4765625 19.5, 60.4765625 19.5 M60.47656250000001 19.5 C60.47656250000001 19.5, 60.4765625 19.5, 60.4765625 19.5 M60.4765625 19.5 C12.853422158281099 19.5, -34.7697181834378 19.5, -60.47656249999999 19.5 M60.4765625 19.5 C22.565628344476288 19.5, -15.345305811047425 19.5, -60.47656249999999 19.5 M-60.47656249999999 19.5 C-60.934181003552276 19.48532506529146, -61.39179950710456 19.47065013058292, -61.72593178962389 19.45993515863156 M-60.47656249999999 19.5 C-60.85023437544879 19.48801707026254, -61.2239062508976 19.47603414052508, -61.72593178962389 19.45993515863156 M-61.72593178962389 19.45993515863156 C-62.108319715667854 19.423046655294865, -62.49070764171182 19.386158151958167, -62.97016715284787 19.3399052695533 M-61.72593178962389 19.45993515863156 C-62.12659634026025 19.42128353130129, -62.5272608908966 19.382631903971024, -62.97016715284787 19.3399052695533 M-62.97016715284787 19.3399052695533 C-63.366437541438536 19.27583934624872, -63.7627079300292 19.21177342294414, -64.20415575967675 19.140403561325773 M-62.97016715284787 19.3399052695533 C-63.25327381523318 19.294134779903796, -63.53638047761849 19.248364290254298, -64.20415575967675 19.140403561325773 M-64.20415575967675 19.140403561325773 C-64.45163875408447 19.083917182829676, -64.69912174849219 19.02743080433358, -65.42282688623538 18.862249829261074 M-64.20415575967675 19.140403561325773 C-64.58715014038502 19.052987593201014, -64.97014452109329 18.965571625076258, -65.42282688623538 18.862249829261074 M-65.42282688623538 18.862249829261074 C-65.83043157527729 18.741274897114113, -66.23803626431918 18.620299964967153, -66.62117275146059 18.506587066708043 M-65.42282688623538 18.862249829261074 C-65.77587219318063 18.75746783533236, -66.12891750012588 18.652685841403642, -66.62117275146059 18.506587066708043 M-66.62117275146059 18.506587066708043 C-66.91507145595303 18.398429626684987, -67.20897016044545 18.29027218666193, -67.7942690951478 18.074876768247425 M-66.62117275146059 18.506587066708043 C-66.98694900239623 18.37197802516513, -67.35272525333187 18.23736898362222, -67.7942690951478 18.074876768247425 M-67.7942690951478 18.074876768247425 C-68.03247893481625 17.96942833847003, -68.27068877448471 17.863979908692635, -68.93729541279238 17.568892924097174 M-67.7942690951478 18.074876768247425 C-68.22461066363363 17.884377321507813, -68.65495223211946 17.6938778747682, -68.93729541279238 17.568892924097174 M-68.93729541279238 17.568892924097174 C-69.36665423984876 17.344896699039314, -69.79601306690515 17.120900473981457, -70.04555476407678 16.990714730406097 M-68.93729541279238 17.568892924097174 C-69.3537081045057 17.351650689555395, -69.77012079621902 17.134408455013617, -70.04555476407678 16.990714730406097 M-70.04555476407678 16.990714730406097 C-70.29740134362423 16.83804385386965, -70.54924792317169 16.685372977333206, -71.11449307360569 16.3427180453909 M-70.04555476407678 16.990714730406097 C-70.40074372409161 16.775397095523086, -70.75593268410645 16.560079460640075, -71.11449307360569 16.3427180453909 M-71.11449307360569 16.3427180453909 C-71.37190169656817 16.163160933051962, -71.62931031953066 15.983603820713025, -72.13971784457871 15.627565626425156 M-71.11449307360569 16.3427180453909 C-71.33526212545168 16.188719111761365, -71.55603117729765 16.034720178131828, -72.13971784457871 15.627565626425156 M-72.13971784457871 15.627565626425156 C-72.5139765229629 15.329104289855463, -72.8882352013471 15.030642953285769, -73.11701620850187 14.848196188198125 M-72.13971784457871 15.627565626425156 C-72.41914082033244 15.404733239019226, -72.69856379608616 15.181900851613294, -73.11701620850187 14.848196188198125 M-73.11701620850187 14.848196188198125 C-73.47031904722539 14.527335897950282, -73.82362188594892 14.206475607702437, -74.04237223676797 14.007812326905697 M-73.11701620850187 14.848196188198125 C-73.45924109609803 14.537396600057633, -73.80146598369419 14.22659701191714, -74.04237223676797 14.007812326905697 M-74.04237223676797 14.007812326905697 C-74.2547979677063 13.788465319235014, -74.46722369864463 13.569118311564331, -74.91198344296865 13.109867360095677 M-74.04237223676797 14.007812326905697 C-74.24400501989298 13.799609923969758, -74.445637803018 13.591407521033817, -74.91198344296865 13.109867360095677 M-74.91198344296865 13.109867360095677 C-75.12668691286449 12.857664447382499, -75.34139038276032 12.605461534669322, -75.72227640812658 12.158051136245307 M-74.91198344296865 13.109867360095677 C-75.13940720778828 12.842722465159717, -75.36683097260793 12.575577570223759, -75.72227640812658 12.158051136245307 M-75.72227640812658 12.158051136245307 C-75.94280236461782 11.862566444874973, -76.16332832110906 11.56708175350464, -76.46992146464063 11.156274872382316 M-75.72227640812658 12.158051136245307 C-76.01684373515192 11.763357753666888, -76.31141106217729 11.36866437108847, -76.46992146464063 11.156274872382316 M-76.46992146464063 11.156274872382316 C-76.6507712734105 10.878441001138421, -76.83162108218035 10.600607129894525, -77.15184637860425 10.108655082055249 M-76.46992146464063 11.156274872382316 C-76.70622013606177 10.793256658001614, -76.94251880748293 10.43023844362091, -77.15184637860425 10.108655082055249 M-77.15184637860425 10.108655082055249 C-77.35627181924254 9.745677011881432, -77.56069725988083 9.382698941707613, -77.7652489742735 9.019496659696289 M-77.15184637860425 10.108655082055249 C-77.3830759711533 9.698083525949173, -77.61430556370236 9.287511969843095, -77.7652489742735 9.019496659696289 M-77.7652489742735 9.019496659696289 C-77.88107510637512 8.778981218105056, -77.99690123847675 8.538465776513823, -78.30760864880834 7.893275190886686 M-77.7652489742735 9.019496659696289 C-77.91197641325512 8.714813993186702, -78.05870385223673 8.410131326677117, -78.30760864880834 7.893275190886686 M-78.30760864880834 7.893275190886686 C-78.49142497129847 7.4392453204892375, -78.6752412937886 6.985215450091789, -78.77669672997033 6.73461856121551 M-78.30760864880834 7.893275190886686 C-78.4774221669054 7.473832518065925, -78.64723568500246 7.054389845245163, -78.77669672997033 6.73461856121551 M-78.77669672997033 6.73461856121551 C-78.89449748919779 6.379821443424497, -79.01229824842525 6.025024325633485, -79.17058563421489 5.5482879393051325 M-78.77669672997033 6.73461856121551 C-78.92356472361885 6.292275564583113, -79.0704327172674 5.849932567950716, -79.17058563421489 5.5482879393051325 M-79.17058563421489 5.5482879393051325 C-79.25177225017737 5.238688186138264, -79.33295886613985 4.929088432971394, -79.48765678754556 4.339158212148136 M-79.17058563421489 5.5482879393051325 C-79.25439471757662 5.228687581360351, -79.33820380093835 4.90908722341557, -79.48765678754556 4.339158212148136 M-79.48765678754556 4.339158212148136 C-79.53897596604382 4.075645076871776, -79.59029514454208 3.8121319415954162, -79.72660727658177 3.112197953150904 M-79.48765678754556 4.339158212148136 C-79.56311581286374 3.951692065409939, -79.63857483818191 3.5642259186717418, -79.72660727658177 3.112197953150904 M-79.72660727658177 3.112197953150904 C-79.76584618487743 2.807868729008657, -79.80508509317309 2.5035395048664095, -79.88645520250937 1.872449005199809 M-79.72660727658177 3.112197953150904 C-79.7602153391286 2.8515404567003046, -79.79382340167544 2.590882960249705, -79.88645520250937 1.872449005199809 M-79.88645520250937 1.872449005199809 C-79.90460025945595 1.5898250968304728, -79.92274531640253 1.3072011884611365, -79.96654371591342 0.6250057626472781 M-79.88645520250937 1.872449005199809 C-79.9028523498338 1.6170502000828182, -79.91924949715822 1.361651394965827, -79.96654371591342 0.6250057626472781 M-79.96654371591342 0.6250057626472781 C-79.96654371591342 0.19820952939015973, -79.96654371591342 -0.22858670386695867, -79.96654371591342 -0.6250057626472687 M-79.96654371591342 0.6250057626472781 C-79.96654371591342 0.24965848504615556, -79.96654371591342 -0.125688792554967, -79.96654371591342 -0.6250057626472687 M-79.96654371591342 -0.6250057626472687 C-79.94483809706456 -0.96308829667844, -79.92313247821569 -1.3011708307096113, -79.88645520250937 -1.8724490051997822 M-79.96654371591342 -0.6250057626472687 C-79.93646746529234 -1.0934676431830939, -79.90639121467126 -1.561929523718919, -79.88645520250937 -1.8724490051997822 M-79.88645520250937 -1.8724490051997822 C-79.84499083171255 -2.1940384770336996, -79.80352646091575 -2.5156279488676176, -79.72660727658177 -3.112197953150895 M-79.88645520250937 -1.8724490051997822 C-79.8361230476134 -2.262815259364688, -79.78579089271744 -2.6531815135295944, -79.72660727658177 -3.112197953150895 M-79.72660727658177 -3.112197953150895 C-79.64644361044788 -3.5238214361516538, -79.56627994431396 -3.9354449191524123, -79.48765678754556 -4.339158212148126 M-79.72660727658177 -3.112197953150895 C-79.65505243421276 -3.4796169455944495, -79.58349759184377 -3.8470359380380037, -79.48765678754556 -4.339158212148126 M-79.48765678754556 -4.339158212148126 C-79.38974092276962 -4.712553841543034, -79.29182505799368 -5.085949470937942, -79.17058563421489 -5.548287939305123 M-79.48765678754556 -4.339158212148126 C-79.39460471118075 -4.694006108352173, -79.30155263481593 -5.04885400455622, -79.17058563421489 -5.548287939305123 M-79.17058563421489 -5.548287939305123 C-79.0818000947944 -5.815695837984962, -78.99301455537393 -6.0831037366648015, -78.77669672997033 -6.734618561215485 M-79.17058563421489 -5.548287939305123 C-79.07911911455287 -5.823770523316276, -78.98765259489086 -6.09925310732743, -78.77669672997033 -6.734618561215485 M-78.77669672997033 -6.734618561215485 C-78.651066171812 -7.044928468768133, -78.5254356136537 -7.3552383763207825, -78.30760864880834 -7.893275190886676 M-78.77669672997033 -6.734618561215485 C-78.6335368245973 -7.088226295295342, -78.49037691922427 -7.441834029375199, -78.30760864880834 -7.893275190886676 M-78.30760864880834 -7.893275190886676 C-78.14064924288118 -8.239969969653433, -77.97368983695402 -8.586664748420192, -77.7652489742735 -9.019496659696282 M-78.30760864880834 -7.893275190886676 C-78.16968766228914 -8.179671070430167, -78.03176667576993 -8.466066949973657, -77.7652489742735 -9.019496659696282 M-77.7652489742735 -9.019496659696282 C-77.54189101906195 -9.416091326619917, -77.3185330638504 -9.812685993543553, -77.15184637860425 -10.108655082055243 M-77.7652489742735 -9.019496659696282 C-77.6312487688938 -9.257427593340108, -77.4972485635141 -9.495358526983932, -77.15184637860425 -10.108655082055243 M-77.15184637860425 -10.108655082055243 C-76.90150067059358 -10.493253316794938, -76.6511549625829 -10.877851551534633, -76.46992146464063 -11.156274872382308 M-77.15184637860425 -10.108655082055243 C-76.90521292957732 -10.487550290114799, -76.65857948055039 -10.866445498174354, -76.46992146464063 -11.156274872382308 M-76.46992146464063 -11.156274872382308 C-76.21038645464618 -11.504028141649068, -75.95085144465172 -11.851781410915827, -75.72227640812659 -12.158051136245302 M-76.46992146464063 -11.156274872382308 C-76.21608985941991 -11.496386098843134, -75.96225825419918 -11.83649732530396, -75.72227640812659 -12.158051136245302 M-75.72227640812659 -12.158051136245302 C-75.55580403562544 -12.353599057531481, -75.38933166312431 -12.54914697881766, -74.91198344296866 -13.10986736009567 M-75.72227640812659 -12.158051136245302 C-75.4201012595184 -12.513003260053528, -75.1179261109102 -12.867955383861757, -74.91198344296866 -13.10986736009567 M-74.91198344296866 -13.10986736009567 C-74.59294454406958 -13.439301216789696, -74.27390564517052 -13.768735073483722, -74.04237223676799 -14.007812326905677 M-74.91198344296866 -13.10986736009567 C-74.69180482733486 -13.337219857738091, -74.47162621170106 -13.564572355380513, -74.04237223676799 -14.007812326905677 M-74.04237223676799 -14.007812326905677 C-73.79060083035226 -14.236464456706065, -73.53882942393655 -14.465116586506452, -73.1170162085019 -14.848196188198107 M-74.04237223676799 -14.007812326905677 C-73.7908860838224 -14.236205397051883, -73.53939993087681 -14.46459846719809, -73.1170162085019 -14.848196188198107 M-73.1170162085019 -14.848196188198107 C-72.82989928800681 -15.077164291790796, -72.54278236751173 -15.306132395383484, -72.13971784457871 -15.627565626425149 M-73.1170162085019 -14.848196188198107 C-72.77336711515473 -15.12224719525604, -72.42971802180755 -15.396298202313972, -72.13971784457871 -15.627565626425149 M-72.13971784457871 -15.627565626425149 C-71.75650335316132 -15.894879466549964, -71.37328886174392 -16.16219330667478, -71.11449307360571 -16.342718045390885 M-72.13971784457871 -15.627565626425149 C-71.836133630528 -15.839332832198119, -71.53254941647727 -16.05110003797109, -71.11449307360571 -16.342718045390885 M-71.11449307360571 -16.342718045390885 C-70.86554140840677 -16.49363400783686, -70.61658974320783 -16.644549970282835, -70.04555476407678 -16.99071473040609 M-71.11449307360571 -16.342718045390885 C-70.6901987795054 -16.599927739904537, -70.26590448540507 -16.85713743441819, -70.04555476407678 -16.99071473040609 M-70.04555476407678 -16.99071473040609 C-69.70554562845325 -17.168097278674644, -69.36553649282972 -17.345479826943194, -68.9372954127924 -17.56889292409717 M-70.04555476407678 -16.99071473040609 C-69.77212500428189 -17.133362860950967, -69.49869524448701 -17.27601099149584, -68.9372954127924 -17.56889292409717 M-68.9372954127924 -17.56889292409717 C-68.5339407705084 -17.747446059145958, -68.13058612822438 -17.92599919419474, -67.79426909514781 -18.07487676824742 M-68.9372954127924 -17.56889292409717 C-68.68351562615969 -17.68123370752957, -68.42973583952698 -17.793574490961976, -67.79426909514781 -18.07487676824742 M-67.79426909514781 -18.07487676824742 C-67.55822695773644 -18.161742456764404, -67.32218482032506 -18.24860814528139, -66.62117275146062 -18.506587066708033 M-67.79426909514781 -18.07487676824742 C-67.42349489406192 -18.211325101646175, -67.05272069297601 -18.347773435044925, -66.62117275146062 -18.506587066708033 M-66.62117275146062 -18.506587066708033 C-66.36946137243444 -18.58129368274301, -66.11774999340828 -18.656000298777986, -65.42282688623541 -18.862249829261067 M-66.62117275146062 -18.506587066708033 C-66.32673740136875 -18.59397393309261, -66.03230205127687 -18.681360799477186, -65.42282688623541 -18.862249829261067 M-65.42282688623541 -18.862249829261067 C-65.14118275473805 -18.92653326437562, -64.85953862324068 -18.99081669949018, -64.20415575967677 -19.140403561325773 M-65.42282688623541 -18.862249829261067 C-64.96182952329602 -18.96746946906305, -64.50083216035662 -19.072689108865035, -64.20415575967677 -19.140403561325773 M-64.20415575967677 -19.140403561325773 C-63.79374339637009 -19.206755849429783, -63.38333103306342 -19.273108137533793, -62.97016715284788 -19.3399052695533 M-64.20415575967677 -19.140403561325773 C-63.94400497548966 -19.182462722613682, -63.683854191302565 -19.224521883901588, -62.97016715284788 -19.3399052695533 M-62.97016715284788 -19.3399052695533 C-62.508443728269455 -19.384447173018717, -62.046720303691025 -19.428989076484136, -61.7259317896239 -19.45993515863156 M-62.97016715284788 -19.3399052695533 C-62.486955839208015 -19.386520083833506, -62.00374452556815 -19.433134898113714, -61.7259317896239 -19.45993515863156 M-61.7259317896239 -19.45993515863156 C-61.4287732691845 -19.46946445399808, -61.1316147487451 -19.478993749364598, -60.47656250000001 -19.5 M-61.7259317896239 -19.45993515863156 C-61.43667383400256 -19.46921109826188, -61.147415878381224 -19.4784870378922, -60.47656250000001 -19.5 M-60.47656250000001 -19.5 C-60.47656250000001 -19.5, -60.4765625 -19.5, -60.4765625 -19.5 M-60.47656250000001 -19.5 C-60.47656250000001 -19.5, -60.47656250000001 -19.5, -60.4765625 -19.5" stroke="#052e56" stroke-width="1.3" fill="none" stroke-dasharray="0 0" style="fill:#08427b !important;stroke:#052e56 !important"/></g><g class="label" style="color:#fff !important" transform="translate(-67.6015625, -12)"><rect/><foreignObject width="135.203125" height="24"><div style="color: rgb(255, 255, 255) !important; display: table-cell; white-space: nowrap; line-height: 1.5; max-width: 200px; text-align: center;" xmlns="http://www.w3.org/1999/xhtml"><span style="color:#fff !important" class="nodeLabel"><p>push / pull_request</p></span></div></foreignObject></g></g><g class="node default system" id="c4-diagram-14-flowchart-setup-1" data-look="classic" transform="translate(347.93309020996094, 327)"><rect class="basic label-container" style="fill:#1168bd !important;stroke:#0b4884 !important" x="-130" y="-87" width="260" height="174"/><g class="label" style="color:#fff !important" transform="translate(-100, -72)"><rect/><foreignObject width="200" height="144"><div style="color: rgb(255, 255, 255) !important; display: table; white-space: break-spaces; line-height: 1.5; max-width: 200px; text-align: center; width: 200px;" xmlns="http://www.w3.org/1999/xhtml"><span style="color:#fff !important" class="nodeLabel"><p>公共环境 .github/actions/setup<br />JDK 21 · Clojure CLI · bb · clj-kondo<br />Node 22 + npm ci(按需)· Maven/gitlibs 缓存</p></span></div></foreignObject></g></g><g class="node default container" id="c4-diagram-14-flowchart-lint-3" data-look="classic" transform="translate(657.9330902099609, 47)"><rect class="basic label-container" style="fill:#438dd5 !important;stroke:#2e6295 !important" x="-103.8125" y="-39" width="207.625" height="78"/><g class="label" style="color:#fff !important" transform="translate(-73.8125, -24)"><rect/><foreignObject width="147.625" height="48"><div style="color: rgb(255, 255, 255) !important; display: table-cell; white-space: nowrap; line-height: 1.5; max-width: 200px; text-align: center;" xmlns="http://www.w3.org/1999/xhtml"><span style="color:#fff !important" class="nodeLabel"><p>lint<br />bb lint · bb fmt:check</p></span></div></foreignObject></g></g><g class="node default container" id="c4-diagram-14-flowchart-sq-5" data-look="classic" transform="translate(657.9330902099609, 175)"><rect class="basic label-container" style="fill:#438dd5 !important;stroke:#2e6295 !important" x="-114.9453125" y="-39" width="229.890625" height="78"/><g class="label" style="color:#fff !important" transform="translate(-84.9453125, -24)"><rect/><foreignObject width="169.890625" height="48"><div style="color: rgb(255, 255, 255) !important; display: table-cell; white-space: nowrap; line-height: 1.5; max-width: 200px; text-align: center;" xmlns="http://www.w3.org/1999/xhtml"><span style="color:#fff !important" class="nodeLabel"><p>test-sqlite<br />bb test · bb db:roundtrip</p></span></div></foreignObject></g></g><g class="node default container" id="c4-diagram-14-flowchart-my-7" data-look="classic" transform="translate(657.9330902099609, 327)"><rect class="basic label-container" style="fill:#438dd5 !important;stroke:#2e6295 !important" x="-130" y="-63" width="260" height="126"/><g class="label" style="color:#fff !important" transform="translate(-100, -48)"><rect/><foreignObject width="200" height="96"><div style="color: rgb(255, 255, 255) !important; display: table; white-space: break-spaces; line-height: 1.5; max-width: 200px; text-align: center; width: 200px;" xmlns="http://www.w3.org/1999/xhtml"><span style="color:#fff !important" class="nodeLabel"><p>test-mysql<br />service mysql:8.4<br />bb test:mysql · bb db:roundtrip</p></span></div></foreignObject></g></g><g class="node default container" id="c4-diagram-14-flowchart-e2e-9" data-look="classic" transform="translate(657.9330902099609, 503)"><rect class="basic label-container" style="fill:#438dd5 !important;stroke:#2e6295 !important" x="-130" y="-63" width="260" height="126"/><g class="label" style="color:#fff !important" transform="translate(-100, -48)"><rect/><foreignObject width="200" height="96"><div style="color: rgb(255, 255, 255) !important; display: table; white-space: break-spaces; line-height: 1.5; max-width: 200px; text-align: center; width: 200px;" xmlns="http://www.w3.org/1999/xhtml"><span style="color:#fff !important" class="nodeLabel"><p>e2e<br />bb test:cljs → bb release → bb backend → bb e2e<br />失败时上传报告与后端日志</p></span></div></foreignObject></g></g><g class="node default container" id="c4-diagram-14-flowchart-sc-11" data-look="classic" transform="translate(657.9330902099609, 715)"><rect class="basic label-container" style="fill:#438dd5 !important;stroke:#2e6295 !important" x="-130" y="-99" width="260" height="198"/><g class="label" style="color:#fff !important" transform="translate(-100, -84)"><rect/><foreignObject width="200" height="168"><div style="color: rgb(255, 255, 255) !important; display: table; white-space: break-spaces; line-height: 1.5; max-width: 200px; text-align: center; width: 200px;" xmlns="http://www.w3.org/1999/xhtml"><span style="color:#fff !important" class="nodeLabel"><p>scaffold<br />bb new-module ci-demo(6 种字段类型)<br />→ lint · fmt · 生成的测试 · roundtrip<br />→ bb cljs:check → 生成的 E2E</p></span></div></foreignObject></g></g></g></g></g><defs><filter id="c4-diagram-14-drop-shadow" height="130%" width="130%"><feDropShadow dx="4" dy="4" stdDeviation="0" flood-opacity="0.06" flood-color="#000000"/></filter></defs><defs><filter id="c4-diagram-14-drop-shadow-small" height="150%" width="150%"><feDropShadow dx="2" dy="2" stdDeviation="0" flood-opacity="0.06" flood-color="#000000"/></filter></defs></svg>